<svg version="1.1" id="Layer_1" xmlns="http://www.w3.org/2000/svg" xmlns:xlink="http://www.w3.org/1999/xlink" x="0px" y="0px"
	 width="100%" viewBox="0 0 512 512" enable-background="new 0 0 512 512" xml:space="preserve">
<path fill="#FFFFFF" opacity="1.000000" stroke="none" 
	d="
M1.000005,456.000000 
	C1.000000,346.645782 1.000000,237.291550 1.328568,127.763428 
	C2.109080,126.783279 2.730744,126.027496 2.987725,125.163277 
	C7.429456,110.226051 16.348288,98.632103 29.206541,89.985977 
	C43.768173,80.194473 59.845863,77.914261 76.758797,81.053627 
	C95.821388,84.592018 110.142296,95.177361 119.419502,112.096550 
	C122.985992,118.600906 125.247299,125.820930 128.075699,132.648224 
	C170.464111,132.648224 213.188660,132.648224 256.000000,132.648224 
	C256.000000,131.134659 256.000000,129.972824 256.000000,128.810989 
	C256.000000,92.822433 255.986389,56.833862 256.010925,20.845318 
	C256.016144,13.219217 262.745361,8.503851 269.956573,10.971208 
	C274.914490,12.667584 276.998657,16.181465 276.998810,22.890198 
	C277.000610,103.697845 277.000000,184.505493 277.000000,265.313141 
	C277.000000,267.095215 277.000000,268.877289 277.000000,270.775940 
	C285.182831,270.775940 292.919647,270.775940 301.000000,270.775940 
	C301.000000,257.431091 301.000000,244.307373 301.000000,231.183655 
	C301.000000,161.372513 301.031769,91.561317 300.936493,21.750305 
	C300.929291,16.479603 303.068481,13.198591 307.659149,10.965862 
	C314.464783,7.655870 322.156342,13.887066 322.101715,21.985977 
	C321.864624,57.139870 322.000000,92.296272 322.000000,127.451767 
	C322.000000,129.220657 322.000000,130.989548 322.000000,133.000000 
	C324.347046,133.000000 326.153900,133.000000 327.960754,133.000000 
	C380.777313,133.000000 433.594147,132.908279 486.410095,133.088867 
	C495.376770,133.119522 504.893921,130.633881 513.000000,137.000000 
	C513.000000,185.020889 513.000000,233.041794 512.697388,281.241699 
	C511.992584,281.715302 511.568512,281.984497 511.191376,282.308380 
	C507.197510,285.738129 502.948334,286.823395 497.884888,284.490814 
	C493.009003,282.244598 492.961121,278.211761 492.967621,273.796204 
	C493.023865,235.638321 493.000000,197.480301 493.000000,159.322327 
	C493.000000,157.574997 493.000000,155.827667 493.000000,154.342026 
	C435.566986,154.342026 378.836975,154.342026 322.344727,154.342026 
	C322.344727,161.762451 322.344727,168.837967 322.344727,176.000000 
	C352.176239,176.000000 381.663116,175.984055 411.150024,176.011398 
	C418.373505,176.018097 423.024139,180.306885 422.958008,187.274857 
	C422.790039,204.962845 438.502045,220.201843 455.817902,220.155579 
	C463.764374,220.134338 469.056000,222.761108 469.039551,233.652252 
	C468.954437,289.972656 469.000000,346.293213 468.999878,402.613739 
	C468.999878,403.780121 469.103088,404.957733 468.979645,406.110992 
	C468.406891,411.461243 464.418854,415.595978 459.619690,416.014008 
	C456.704498,416.268005 453.802948,416.676147 450.893280,416.996918 
	C436.247131,418.611664 422.778046,434.114563 422.974701,448.544403 
	C423.085022,456.638306 419.544342,459.999878 411.318878,459.999878 
	C317.506897,460.000031 223.694916,460.000000 129.882935,460.000000 
	C128.062973,460.000000 126.242996,460.000000 125.688644,460.000000 
	C121.016808,468.136566 116.768570,475.535370 112.649597,482.709045 
	C239.325455,482.709045 366.057343,482.709045 493.000000,482.709045 
	C493.000000,480.607483 493.000000,478.795288 493.000000,476.983124 
	C493.000000,438.825134 492.998077,400.667175 493.002167,362.509186 
	C493.002747,356.867920 496.779968,352.607574 502.383942,353.181000 
	C506.014862,353.552521 509.467499,355.666656 513.000000,357.000000 
	C513.000000,404.354218 513.000000,451.708466 512.698364,499.241943 
	C508.751770,502.817963 504.570709,504.092896 499.473663,504.088623 
	C365.756531,503.976868 232.039261,504.029633 98.322083,503.956207 
	C84.251259,503.948456 70.162926,503.665192 56.114964,502.910004 
	C41.050964,502.100220 28.563845,494.884338 18.264753,484.476898 
	C10.773783,476.907166 5.290787,467.672211 2.893556,456.965179 
	C2.794828,456.524231 1.654870,456.316406 1.000005,456.000000 
M103.910927,449.648621 
	C92.405396,459.748291 79.082008,465.072357 63.689247,465.005432 
	C56.275681,464.973206 53.004150,461.735443 53.001854,454.304626 
	C52.996201,436.020996 53.000000,417.737366 53.000000,398.889771 
	C49.474899,400.488434 46.096710,401.613129 43.143414,403.428864 
	C28.713875,412.300629 21.428812,424.982025 21.880085,442.269806 
	C22.173645,453.515839 26.466625,463.074829 34.197670,470.309448 
	C44.112049,479.587250 56.017620,484.298096 70.453453,482.195404 
	C86.368851,479.877167 102.273750,465.972931 105.643021,449.879242 
	C105.683434,449.339569 105.723846,448.799927 105.764267,448.260254 
	C105.324699,448.575195 104.885132,448.890137 103.910927,449.648621 
M415.018280,414.467163 
	C423.219543,403.491058 435.011719,398.739258 447.859039,395.701294 
	C447.910187,394.950500 447.993530,394.297394 447.993622,393.644287 
	C447.999939,343.977844 447.973969,294.311371 448.061218,244.645065 
	C448.066711,241.527634 446.877991,240.604065 444.008118,239.908142 
	C434.454468,237.591476 425.981659,233.206253 418.739441,226.334412 
	C410.234955,218.264832 405.154694,208.440674 402.736328,197.292542 
	C375.702881,197.292542 348.954285,197.292542 322.000336,197.292542 
	C322.000336,222.230423 321.980652,246.876404 322.064117,271.522034 
	C322.067902,272.641998 322.739868,274.024200 323.551971,274.828583 
	C326.266907,277.517609 329.083313,280.130188 332.073700,282.503815 
	C333.512238,283.645660 335.421448,284.879059 337.127808,284.893982 
	C356.292938,285.061646 375.460571,284.913940 394.626465,285.030212 
	C407.440979,285.107971 417.703857,292.463654 421.264984,303.767883 
	C421.985382,306.054688 422.937073,308.434265 422.915955,310.763214 
	C422.719086,332.502075 422.989929,354.277161 421.737335,375.961578 
	C421.065308,387.595154 410.056824,397.017822 397.655823,397.013214 
	C325.156158,396.986298 252.655746,396.837616 180.157532,397.161438 
	C168.220810,397.214752 155.028870,384.877014 155.008957,372.282349 
	C154.976028,351.449158 154.821548,330.613495 155.097778,309.783936 
	C155.193146,302.592377 158.988708,296.816650 164.264557,291.938538 
	C170.314545,286.344666 177.676529,285.050446 185.439301,285.021576 
	C203.605637,284.954041 221.772919,285.062164 239.938171,284.907227 
	C241.827286,284.891113 244.032867,283.992767 245.518723,282.793793 
	C248.379974,280.485016 250.974411,277.792480 253.391785,275.009155 
	C254.590439,273.629059 255.878525,271.699707 255.890274,270.010223 
	C256.052612,246.678116 256.002563,223.344528 255.989883,200.011292 
	C255.989365,199.072250 255.843658,198.133270 255.773483,197.289185 
	C213.024155,197.289185 170.618866,197.289185 128.293182,197.289185 
	C128.293182,278.317047 128.293182,359.055420 128.293182,439.886902 
	C219.883850,439.886902 311.181305,439.886902 402.642822,439.886902 
	C404.573364,430.582275 407.957977,422.017212 415.018280,414.467163 
M107.000000,314.500000 
	C107.000000,259.833923 107.022911,205.167786 106.956871,150.501770 
	C106.951546,146.089981 106.459282,141.665482 105.982483,137.269745 
	C103.367958,113.165901 77.296844,94.273163 51.626007,102.788582 
	C31.265411,109.542511 21.116301,125.830185 21.068357,147.973328 
	C20.894787,228.138947 21.000000,308.305176 21.000000,388.471161 
	C21.000000,389.855957 21.000000,391.240753 21.000000,393.019501 
	C33.924728,382.219360 47.840500,376.803345 64.248093,376.831421 
	C80.569916,376.859344 94.488136,382.162415 107.000000,392.917664 
	C107.000000,366.777618 107.000000,341.138824 107.000000,314.500000 
M353.500000,342.000000 
	C294.434021,342.000000 235.368027,342.000000 176.000259,342.000000 
	C176.000259,351.780853 175.776932,361.084534 176.182922,370.360687 
	C176.267212,372.286469 178.324890,374.686646 180.131042,375.816254 
	C181.886078,376.913879 184.486023,376.955414 186.715332,376.957123 
	C254.834320,377.009644 322.953339,377.000092 391.072357,376.999603 
	C392.238190,376.999573 393.436432,377.167358 394.563873,376.957550 
	C398.285034,376.265137 401.761719,374.669800 401.897980,370.456604 
	C402.202423,361.042938 401.993164,351.612640 401.993164,342.000000 
	C385.772308,342.000000 370.136169,342.000000 353.500000,342.000000 
M129.714020,154.003891 
	C129.143875,154.601807 128.088928,155.191010 128.077988,155.798981 
	C127.959000,162.414276 128.003555,169.032516 128.003555,175.780991 
	C170.837784,175.780991 213.241287,175.780991 255.776993,175.780991 
	C255.776993,168.488922 255.776993,161.417328 255.776993,154.000275 
	C213.930237,154.000275 172.305527,154.000275 129.714020,154.003891 
M313.952148,319.399902 
	C317.713287,312.395813 315.940857,304.836853 315.550293,297.582153 
	C315.444336,295.613708 311.497314,292.335968 309.215576,292.249969 
	C295.756195,291.742645 282.267609,291.944244 268.789673,292.031097 
	C264.191742,292.060760 262.104828,294.342621 262.016998,299.085907 
	C261.936951,303.410889 261.997070,307.738464 262.000641,312.064911 
	C262.006775,319.483154 264.479919,321.967682 272.015961,321.991913 
	C282.166321,322.024506 292.321564,322.175659 302.464905,321.906372 
	C306.100586,321.809845 309.707825,320.639526 313.952148,319.399902 
M369.500000,306.000000 
	C358.741669,306.000000 347.983337,306.000000 337.334320,306.000000 
	C336.952789,311.566467 336.609070,316.581635 336.258942,321.690094 
	C358.125702,321.690094 379.993500,321.690094 402.000000,321.690094 
	C402.000000,319.560760 402.001617,317.740784 401.999725,315.920807 
	C401.992035,308.481720 399.490601,306.004120 391.975250,306.000671 
	C384.816833,305.997375 377.658417,306.000000 369.500000,306.000000 
M202.500153,306.000000 
	C198.507538,306.000000 194.510880,306.116577 190.523056,305.978394 
	C177.998062,305.544434 174.965744,306.805756 176.045471,320.770813 
	C176.067978,321.062012 176.281250,321.338531 176.488251,321.810547 
	C198.135345,321.810547 219.863724,321.810547 240.987198,321.810547 
	C240.987198,316.503784 240.987198,311.329468 240.987198,306.000000 
	C228.088501,306.000000 215.794281,306.000000 202.500153,306.000000 
M79.605934,400.955780 
	C77.917679,400.204254 76.229424,399.452728 74.268707,398.579926 
	C74.268707,413.457977 74.268707,427.651337 74.268707,442.241455 
	C86.539482,438.618561 94.851730,431.140778 99.558205,419.737183 
	C100.043640,418.560944 99.547615,416.277252 98.643440,415.345093 
	C93.225182,409.759338 88.334656,403.416534 79.605934,400.955780 
z"/>
<path fill="#000000" opacity="1.000000" stroke="none" 
	d="
M513.000000,136.531342 
	C504.893921,130.633881 495.376770,133.119522 486.410095,133.088867 
	C433.594147,132.908279 380.777313,133.000000 327.960754,133.000000 
	C326.153900,133.000000 324.347046,133.000000 322.000000,133.000000 
	C322.000000,130.989548 322.000000,129.220657 322.000000,127.451767 
	C322.000000,92.296272 321.864624,57.139870 322.101715,21.985977 
	C322.156342,13.887066 314.464783,7.655870 307.659149,10.965862 
	C303.068481,13.198591 300.929291,16.479603 300.936493,21.750305 
	C301.031769,91.561317 301.000000,161.372513 301.000000,231.183655 
	C301.000000,244.307373 301.000000,257.431091 301.000000,270.775940 
	C292.919647,270.775940 285.182831,270.775940 277.000000,270.775940 
	C277.000000,268.877289 277.000000,267.095215 277.000000,265.313141 
	C277.000000,184.505493 277.000610,103.697845 276.998810,22.890198 
	C276.998657,16.181465 274.914490,12.667584 269.956573,10.971208 
	C262.745361,8.503851 256.016144,13.219217 256.010925,20.845318 
	C255.986389,56.833862 256.000000,92.822433 256.000000,128.810989 
	C256.000000,129.972824 256.000000,131.134659 256.000000,132.648224 
	C213.188660,132.648224 170.464111,132.648224 128.075699,132.648224 
	C125.247299,125.820930 122.985992,118.600906 119.419502,112.096550 
	C110.142296,95.177361 95.821388,84.592018 76.758797,81.053627 
	C59.845863,77.914261 43.768173,80.194473 29.206541,89.985977 
	C16.348288,98.632103 7.429456,110.226051 2.987725,125.163277 
	C2.730744,126.027496 2.109080,126.783279 1.328568,127.294769 
	C1.000000,85.023735 1.000000,43.047470 1.000000,1.035602 
	C171.546478,1.035602 342.092987,1.035602 513.000000,1.035602 
	C513.000000,46.020252 513.000000,91.041466 513.000000,136.531342 
z"/>
<path fill="#000000" opacity="1.000000" stroke="none" 
	d="
M513.000000,356.531342 
	C509.467499,355.666656 506.014862,353.552521 502.383942,353.181000 
	C496.779968,352.607574 493.002747,356.867920 493.002167,362.509186 
	C492.998077,400.667175 493.000000,438.825134 493.000000,476.983124 
	C493.000000,478.795288 493.000000,480.607483 493.000000,482.709045 
	C366.057343,482.709045 239.325455,482.709045 112.649597,482.709045 
	C116.768570,475.535370 121.016808,468.136566 125.688644,460.000000 
	C126.242996,460.000000 128.062973,460.000000 129.882935,460.000000 
	C223.694916,460.000000 317.506897,460.000031 411.318878,459.999878 
	C419.544342,459.999878 423.085022,456.638306 422.974701,448.544403 
	C422.778046,434.114563 436.247131,418.611664 450.893280,416.996918 
	C453.802948,416.676147 456.704498,416.268005 459.619690,416.014008 
	C464.418854,415.595978 468.406891,411.461243 468.979645,406.110992 
	C469.103088,404.957733 468.999878,403.780121 468.999878,402.613739 
	C469.000000,346.293213 468.954437,289.972656 469.039551,233.652252 
	C469.056000,222.761108 463.764374,220.134338 455.817902,220.155579 
	C438.502045,220.201843 422.790039,204.962845 422.958008,187.274857 
	C423.024139,180.306885 418.373505,176.018097 411.150024,176.011398 
	C381.663116,175.984055 352.176239,176.000000 322.344727,176.000000 
	C322.344727,168.837967 322.344727,161.762451 322.344727,154.342026 
	C378.836975,154.342026 435.566986,154.342026 493.000000,154.342026 
	C493.000000,155.827667 493.000000,157.574997 493.000000,159.322327 
	C493.000000,197.480301 493.023865,235.638321 492.967621,273.796204 
	C492.961121,278.211761 493.009003,282.244598 497.884888,284.490814 
	C502.948334,286.823395 507.197510,285.738129 511.191376,282.308380 
	C511.568512,281.984497 511.992584,281.715302 512.697388,281.710358 
	C513.000000,292.020905 513.000000,302.041779 512.702026,312.819763 
	C511.883362,313.170380 511.329803,312.799408 510.847107,312.351990 
	C506.290314,308.127747 500.454956,307.625458 496.397400,311.124237 
	C492.636322,314.367340 491.580627,322.019714 494.361267,325.882812 
	C497.437561,330.156647 503.960236,331.067322 509.196899,327.989532 
	C510.428833,327.265472 511.730438,326.660004 513.000000,326.000000 
	C513.000000,336.020905 513.000000,346.041779 513.000000,356.531342 
z"/>
<path fill="#000000" opacity="1.000000" stroke="none" 
	d="
M1.000005,456.468628 
	C1.654870,456.316406 2.794828,456.524231 2.893556,456.965179 
	C5.290787,467.672211 10.773783,476.907166 18.264753,484.476898 
	C28.563845,494.884338 41.050964,502.100220 56.114964,502.910004 
	C70.162926,503.665192 84.251259,503.948456 98.322083,503.956207 
	C232.039261,504.029633 365.756531,503.976868 499.473663,504.088623 
	C504.570709,504.092896 508.751770,502.817963 512.698364,499.710571 
	C513.000000,504.330078 513.000000,508.660156 513.000000,512.947632 
	C342.333313,512.947632 171.666656,512.947632 1.000000,512.947632 
	C1.000000,494.242615 1.000000,475.589966 1.000005,456.468628 
z"/>
<path fill="#FFFFFF" opacity="1.000000" stroke="none" 
	d="
M513.000000,325.536804 
	C511.730438,326.660004 510.428833,327.265472 509.196899,327.989532 
	C503.960236,331.067322 497.437561,330.156647 494.361267,325.882812 
	C491.580627,322.019714 492.636322,314.367340 496.397400,311.124237 
	C500.454956,307.625458 506.290314,308.127747 510.847107,312.351990 
	C511.329803,312.799408 511.883362,313.170380 512.702026,313.288422 
	C513.000000,317.024536 513.000000,321.049103 513.000000,325.536804 
z"/>
<path fill="#000000" opacity="1.000000" stroke="none" 
	d="
M414.765808,414.729553 
	C407.957977,422.017212 404.573364,430.582275 402.642822,439.886902 
	C311.181305,439.886902 219.883850,439.886902 128.293182,439.886902 
	C128.293182,359.055420 128.293182,278.317047 128.293182,197.289185 
	C170.618866,197.289185 213.024155,197.289185 255.773483,197.289185 
	C255.843658,198.133270 255.989365,199.072250 255.989883,200.011292 
	C256.002563,223.344528 256.052612,246.678116 255.890274,270.010223 
	C255.878525,271.699707 254.590439,273.629059 253.391785,275.009155 
	C250.974411,277.792480 248.379974,280.485016 245.518723,282.793793 
	C244.032867,283.992767 241.827286,284.891113 239.938171,284.907227 
	C221.772919,285.062164 203.605637,284.954041 185.439301,285.021576 
	C177.676529,285.050446 170.314545,286.344666 164.264557,291.938538 
	C158.988708,296.816650 155.193146,302.592377 155.097778,309.783936 
	C154.821548,330.613495 154.976028,351.449158 155.008957,372.282349 
	C155.028870,384.877014 168.220810,397.214752 180.157532,397.161438 
	C252.655746,396.837616 325.156158,396.986298 397.655823,397.013214 
	C410.056824,397.017822 421.065308,387.595154 421.737335,375.961578 
	C422.989929,354.277161 422.719086,332.502075 422.915955,310.763214 
	C422.937073,308.434265 421.985382,306.054688 421.264984,303.767883 
	C417.703857,292.463654 407.440979,285.107971 394.626465,285.030212 
	C375.460571,284.913940 356.292938,285.061646 337.127808,284.893982 
	C335.421448,284.879059 333.512238,283.645660 332.073700,282.503815 
	C329.083313,280.130188 326.266907,277.517609 323.551971,274.828583 
	C322.739868,274.024200 322.067902,272.641998 322.064117,271.522034 
	C321.980652,246.876404 322.000336,222.230423 322.000336,197.292542 
	C348.954285,197.292542 375.702881,197.292542 402.736328,197.292542 
	C405.154694,208.440674 410.234955,218.264832 418.739441,226.334412 
	C425.981659,233.206253 434.454468,237.591476 444.008118,239.908142 
	C446.877991,240.604065 448.066711,241.527634 448.061218,244.645065 
	C447.973969,294.311371 447.999939,343.977844 447.993622,393.644287 
	C447.993530,394.297394 447.910187,394.950500 447.859039,395.701294 
	C435.011719,398.739258 423.219543,403.491058 414.765808,414.729553 
z"/>
<path fill="#000000" opacity="1.000000" stroke="none" 
	d="
M107.000000,315.000000 
	C107.000000,341.138824 107.000000,366.777618 107.000000,392.917664 
	C94.488136,382.162415 80.569916,376.859344 64.248093,376.831421 
	C47.840500,376.803345 33.924728,382.219360 21.000000,393.019501 
	C21.000000,391.240753 21.000000,389.855957 21.000000,388.471161 
	C21.000000,308.305176 20.894787,228.138947 21.068357,147.973328 
	C21.116301,125.830185 31.265411,109.542511 51.626007,102.788582 
	C77.296844,94.273163 103.367958,113.165901 105.982483,137.269745 
	C106.459282,141.665482 106.951546,146.089981 106.956871,150.501770 
	C107.022911,205.167786 107.000000,259.833923 107.000000,315.000000 
z"/>
<path fill="#000000" opacity="1.000000" stroke="none" 
	d="
M354.000000,342.000000 
	C370.136169,342.000000 385.772308,342.000000 401.993164,342.000000 
	C401.993164,351.612640 402.202423,361.042938 401.897980,370.456604 
	C401.761719,374.669800 398.285034,376.265137 394.563873,376.957550 
	C393.436432,377.167358 392.238190,376.999573 391.072357,376.999603 
	C322.953339,377.000092 254.834320,377.009644 186.715332,376.957123 
	C184.486023,376.955414 181.886078,376.913879 180.131042,375.816254 
	C178.324890,374.686646 176.267212,372.286469 176.182922,370.360687 
	C175.776932,361.084534 176.000259,351.780853 176.000259,342.000000 
	C235.368027,342.000000 294.434021,342.000000 354.000000,342.000000 
z"/>
<path fill="#000000" opacity="1.000000" stroke="none" 
	d="
M130.197418,154.002075 
	C172.305527,154.000275 213.930237,154.000275 255.776993,154.000275 
	C255.776993,161.417328 255.776993,168.488922 255.776993,175.780991 
	C213.241287,175.780991 170.837784,175.780991 128.003555,175.780991 
	C128.003555,169.032516 127.959000,162.414276 128.077988,155.798981 
	C128.088928,155.191010 129.143875,154.601807 130.197418,154.002075 
z"/>
<path fill="#000000" opacity="1.000000" stroke="none" 
	d="
M105.082222,450.072510 
	C102.273750,465.972931 86.368851,479.877167 70.453453,482.195404 
	C56.017620,484.298096 44.112049,479.587250 34.197670,470.309448 
	C26.466625,463.074829 22.173645,453.515839 21.880085,442.269806 
	C21.428812,424.982025 28.713875,412.300629 43.143414,403.428864 
	C46.096710,401.613129 49.474899,400.488434 53.000000,398.889771 
	C53.000000,417.737366 52.996201,436.020996 53.001854,454.304626 
	C53.004150,461.735443 56.275681,464.973206 63.689247,465.005432 
	C79.082008,465.072357 92.405396,459.748291 104.326637,449.651611 
	C104.855637,449.793915 104.968933,449.933197 105.082222,450.072510 
z"/>
<path fill="#000000" opacity="1.000000" stroke="none" 
	d="
M313.640076,319.679596 
	C309.707825,320.639526 306.100586,321.809845 302.464905,321.906372 
	C292.321564,322.175659 282.166321,322.024506 272.015961,321.991913 
	C264.479919,321.967682 262.006775,319.483154 262.000641,312.064911 
	C261.997070,307.738464 261.936951,303.410889 262.016998,299.085907 
	C262.104828,294.342621 264.191742,292.060760 268.789673,292.031097 
	C282.267609,291.944244 295.756195,291.742645 309.215576,292.249969 
	C311.497314,292.335968 315.444336,295.613708 315.550293,297.582153 
	C315.940857,304.836853 317.713287,312.395813 313.640076,319.679596 
z"/>
<path fill="#000000" opacity="1.000000" stroke="none" 
	d="
M370.000000,306.000000 
	C377.658417,306.000000 384.816833,305.997375 391.975250,306.000671 
	C399.490601,306.004120 401.992035,308.481720 401.999725,315.920807 
	C402.001617,317.740784 402.000000,319.560760 402.000000,321.690094 
	C379.993500,321.690094 358.125702,321.690094 336.258942,321.690094 
	C336.609070,316.581635 336.952789,311.566467 337.334320,306.000000 
	C347.983337,306.000000 358.741669,306.000000 370.000000,306.000000 
z"/>
<path fill="#000000" opacity="1.000000" stroke="none" 
	d="
M203.000107,306.000000 
	C215.794281,306.000000 228.088501,306.000000 240.987198,306.000000 
	C240.987198,311.329468 240.987198,316.503784 240.987198,321.810547 
	C219.863724,321.810547 198.135345,321.810547 176.488251,321.810547 
	C176.281250,321.338531 176.067978,321.062012 176.045471,320.770813 
	C174.965744,306.805756 177.998062,305.544434 190.523056,305.978394 
	C194.510880,306.116577 198.507538,306.000000 203.000107,306.000000 
z"/>
<path fill="#000000" opacity="1.000000" stroke="none" 
	d="
M80.007233,400.976990 
	C88.334656,403.416534 93.225182,409.759338 98.643440,415.345093 
	C99.547615,416.277252 100.043640,418.560944 99.558205,419.737183 
	C94.851730,431.140778 86.539482,438.618561 74.268707,442.241455 
	C74.268707,427.651337 74.268707,413.457977 74.268707,398.579926 
	C76.229424,399.452728 77.917679,400.204254 80.007233,400.976990 
z"/>
<path fill="#000000" opacity="1.000000" stroke="none" 
	d="
M104.593964,449.429840 
	C104.885132,448.890137 105.324699,448.575195 105.764267,448.260254 
	C105.723846,448.799927 105.683434,449.339569 105.362625,449.975891 
	C104.968933,449.933197 104.855637,449.793915 104.593964,449.429840 
z"/>
</svg>