<?xml version="1.0" standalone="no"?>
<!DOCTYPE svg PUBLIC "-//W3C//DTD SVG 20010904//EN"
 "http://www.w3.org/TR/2001/REC-SVG-20010904/DTD/svg10.dtd">
<svg version="1.0" xmlns="http://www.w3.org/2000/svg"
 width="512.000000pt" height="512.000000pt" viewBox="0 0 512.000000 512.000000"
 preserveAspectRatio="xMidYMid meet">

<g transform="translate(0.000000,512.000000) scale(0.100000,-0.100000)"
fill="#000000" stroke="none">
<path d="M1877 5109 c-25 -15 -47 -70 -47 -119 l0 -40 -129 0 c-220 0 -213 11
-209 -360 l3 -268 24 -26 c24 -26 27 -26 168 -26 l143 0 0 -40 c0 -31 -36
-112 -171 -382 l-171 -344 15 -35 c10 -26 25 -40 47 -48 46 -15 366 -14 404 2
24 11 53 61 195 342 l166 330 185 0 185 0 3 -81 3 -81 -63 -6 c-51 -5 -67 -10
-85 -32 -23 -26 -23 -31 -23 -278 l0 -251 -478 -481 c-440 -442 -481 -485
-506 -543 -15 -35 -32 -91 -37 -125 -11 -82 -11 -1764 1 -1845 25 -180 166
-329 339 -362 33 -6 356 -10 855 -10 678 0 811 2 859 15 154 40 263 142 309
288 17 56 18 144 18 1812 l0 1754 -23 26 c-18 22 -34 27 -85 32 l-63 6 3 81 3
81 230 3 c221 2 230 3 253 25 24 21 24 25 19 127 -11 187 -79 364 -201 516
-126 158 -297 269 -502 326 -78 22 -87 23 -849 25 -544 2 -775 0 -788 -8z
m1611 -187 c257 -79 446 -259 525 -502 14 -41 27 -92 30 -112 l6 -38 -1020 0
-1019 0 0 340 0 341 703 -3 c694 -4 703 -4 775 -26z m-1658 -312 l0 -170 -85
0 -85 0 0 170 0 170 85 0 85 0 0 -170z m290 -515 c0 -3 -57 -120 -127 -260
l-128 -255 -72 0 c-40 0 -73 2 -73 5 0 3 57 120 127 260 l128 255 72 0 c40 0
73 -2 73 -5z m1420 -80 l0 -85 -340 0 -340 0 0 85 0 85 340 0 340 0 0 -85z
m170 -435 l0 -170 -510 0 -510 0 0 170 0 170 510 0 510 0 0 -170z m0 -510 l0
-170 -707 0 -708 0 170 170 170 170 537 0 538 0 0 -170z m-2 -1527 c-3 -1120
-4 -1190 -21 -1224 -24 -47 -71 -95 -121 -122 -41 -22 -41 -22 -855 -25 -904
-3 -880 -4 -957 62 -23 20 -52 58 -65 88 l-24 53 0 915 c0 874 1 917 19 965
16 41 55 87 229 263 l211 212 793 0 793 0 -2 -1187z"/>
<path d="M983 5035 c-20 -41 -35 -76 -33 -79 10 -8 332 -167 335 -164 1 2 19
36 39 75 l36 73 -170 85 -170 85 -37 -75z"/>
<path d="M900 4605 l0 -85 210 0 210 0 0 85 0 85 -210 0 -210 0 0 -85z"/>
<path d="M1108 4339 c-87 -43 -158 -84 -158 -89 0 -16 64 -140 72 -140 7 0
328 158 336 165 8 7 -69 145 -81 144 -6 0 -83 -36 -169 -80z"/>
</g>
</svg>
